<svg width="1920" height="1050" viewBox="0 0 1920 1050" fill="none" xmlns="http://www.w3.org/2000/svg">
<g clip-path="url(#clip0_46_198)">
<rect width="1920" height="1050" fill="black"/>
<g opacity="0.06">
<path d="M60.6528 -113V6486" stroke="white" stroke-width="1.69118"/>
<path d="M152.305 -113V6486" stroke="white" stroke-width="1.69118"/>
<path d="M243.958 -113V6486" stroke="white" stroke-width="1.69118"/>
<path d="M335.61 -113V6486" stroke="white" stroke-width="1.69118"/>
<path d="M427.265 -113V6486" stroke="white" stroke-width="1.69118"/>
<path d="M518.917 -113V6486" stroke="white" stroke-width="1.69118"/>
<path d="M610.57 -113V6486" stroke="white" stroke-width="1.69118"/>
<path d="M702.223 -113V6486" stroke="white" stroke-width="1.69118"/>
<path d="M793.875 -113V6486" stroke="white" stroke-width="1.69118"/>
<path d="M885.527 -113V6486" stroke="white" stroke-width="1.69118"/>
<path d="M977.18 -113V6486" stroke="white" stroke-width="1.69118"/>
<path d="M1068.83 -113V6486" stroke="white" stroke-width="1.69118"/>
<path d="M1160.49 -113V6486" stroke="white" stroke-width="1.69118"/>
<path d="M1252.14 -113V6486" stroke="white" stroke-width="1.69118"/>
<path d="M1343.79 -113V6486" stroke="white" stroke-width="1.69118"/>
<path d="M1435.44 -113V6486" stroke="white" stroke-width="1.69118"/>
<path d="M1527.1 -113V6486" stroke="white" stroke-width="1.69118"/>
<path d="M1618.75 -113V6486" stroke="white" stroke-width="1.69118"/>
<path d="M1710.4 -113V6486" stroke="white" stroke-width="1.69118"/>
<path d="M1802.06 -113V6486" stroke="white" stroke-width="1.69118"/>
<path d="M1893.71 -113V6486" stroke="white" stroke-width="1.69118"/>
<path d="M-31 70.3061H6568" stroke="white" stroke-width="1.69118"/>
<path d="M-31 161.959H6568" stroke="white" stroke-width="1.69118"/>
<path d="M-31 253.611H6568" stroke="white" stroke-width="1.69118"/>
<path d="M-31 345.264H6568" stroke="white" stroke-width="1.69118"/>
<path d="M-31 436.917H6568" stroke="white" stroke-width="1.69118"/>
<path d="M-31 528.57H6568" stroke="white" stroke-width="1.69118"/>
<path d="M-31 620.222H6568" stroke="white" stroke-width="1.69118"/>
<path d="M-31 711.875H6568" stroke="white" stroke-width="1.69118"/>
<path d="M-31 803.529H6568" stroke="white" stroke-width="1.69118"/>
<path d="M-31 895.181H6568" stroke="white" stroke-width="1.69118"/>
<path d="M-31 986.834H6568" stroke="white" stroke-width="1.69118"/>
</g>
<g filter="url(#filter0_f_46_198)">
<path fill-rule="evenodd" clip-rule="evenodd" d="M565.123 905C638.496 905.862 718.911 815.003 776.869 860.005C837.38 906.988 851.346 995.921 840.437 1071.75C830.722 1139.28 775.216 1185.61 723.609 1230.24C677.123 1270.43 625.909 1300.78 565.123 1309.83C491.341 1320.81 401.216 1341.01 351.217 1285.66C301.532 1230.65 350.582 1145.87 350.088 1071.75C349.586 996.631 295.066 907.932 348.342 854.97C401.622 802.005 490.002 904.117 565.123 905Z" fill="#EB680B"/>
</g>
<g filter="url(#filter1_f_46_198)">
<path fill-rule="evenodd" clip-rule="evenodd" d="M1286.35 409.672C1324.96 410.126 1367.27 387.056 1397.77 410.736C1429.61 435.458 1436.96 482.254 1431.22 522.154C1426.11 557.689 1396.9 582.065 1369.74 605.548C1345.28 626.7 1318.34 642.668 1286.35 647.428C1247.53 653.206 1200.1 663.838 1173.79 634.71C1147.65 605.765 1173.46 561.157 1173.2 522.154C1172.94 482.627 1144.25 435.955 1172.28 408.087C1200.32 380.217 1246.82 409.208 1286.35 409.672Z" fill="#EB680B"/>
</g>
<g filter="url(#filter2_f_46_198)">
<path fill-rule="evenodd" clip-rule="evenodd" d="M1714.98 912.231C1769.04 923.722 1906.53 726.059 1946.58 764.139C1987.72 803.245 2017.4 855.48 2016.56 912.231C2015.72 968.298 1981.6 1016.04 1942.23 1055.97C1902.51 1096.26 1854.38 1124.59 1798.49 1133.39C1730.42 1144.1 1659.9 1145.52 1601.06 1109.67C1524.8 1063.21 1441.89 1001.29 1435.48 912.231C1428.89 820.642 1490.7 729.72 1570.44 684.182C1639.35 644.831 1637.37 895.732 1714.98 912.231Z" fill="#FC9F3B"/>
</g>
<g filter="url(#filter3_f_46_198)">
<path fill-rule="evenodd" clip-rule="evenodd" d="M1139.27 721.93C1219.65 731.121 1275.5 796.044 1331.5 854.424C1385.78 910.997 1441.99 968.754 1450.81 1046.66C1460.62 1133.21 1349.38 1022.68 1284.23 1080.5C1221.02 1136.61 1223.69 1327.4 1139.27 1323.2C1061.03 1319.3 979.845 1316.61 920.778 1265.15C858.114 1210.56 1050.95 1096.5 1046.73 1013.5C1042.28 925.806 836.022 867.574 897.4 804.782C959.329 741.426 1051.25 711.864 1139.27 721.93Z" fill="#9A3D12"/>
</g>
<path d="M1142.44 934.05C1142.3 933.619 1142.12 933.233 1141.89 932.892C1141.66 932.546 1141.39 932.253 1141.07 932.011C1140.75 931.765 1140.39 931.578 1139.98 931.45C1139.58 931.322 1139.14 931.259 1138.66 931.259C1137.84 931.259 1137.1 931.469 1136.44 931.891C1135.78 932.312 1135.26 932.93 1134.88 933.744C1134.5 934.554 1134.31 935.546 1134.31 936.72C1134.31 937.899 1134.5 938.896 1134.88 939.71C1135.27 940.525 1135.79 941.143 1136.46 941.564C1137.13 941.985 1137.89 942.196 1138.74 942.196C1139.53 942.196 1140.22 942.035 1140.81 941.713C1141.4 941.391 1141.86 940.937 1142.18 940.349C1142.51 939.758 1142.67 939.062 1142.67 938.261L1143.24 938.368H1139.08V936.557H1144.79V938.212C1144.79 939.433 1144.53 940.494 1144.01 941.393C1143.5 942.288 1142.78 942.98 1141.87 943.467C1140.96 943.955 1139.92 944.199 1138.74 944.199C1137.43 944.199 1136.27 943.896 1135.28 943.29C1134.29 942.684 1133.51 941.824 1132.96 940.712C1132.41 939.594 1132.13 938.268 1132.13 936.734C1132.13 935.574 1132.29 934.533 1132.61 933.609C1132.93 932.686 1133.39 931.902 1133.97 931.259C1134.56 930.61 1135.24 930.115 1136.04 929.774C1136.83 929.429 1137.7 929.256 1138.64 929.256C1139.43 929.256 1140.16 929.372 1140.84 929.604C1141.52 929.836 1142.12 930.165 1142.65 930.591C1143.19 931.017 1143.63 931.524 1143.98 932.111C1144.33 932.693 1144.57 933.339 1144.69 934.05H1142.44ZM1152.11 944.22C1151.03 944.22 1150.11 943.991 1149.33 943.531C1148.56 943.067 1147.96 942.416 1147.54 941.578C1147.13 940.735 1146.92 939.748 1146.92 938.616C1146.92 937.499 1147.13 936.514 1147.54 935.662C1147.96 934.81 1148.55 934.144 1149.3 933.666C1150.06 933.188 1150.95 932.949 1151.96 932.949C1152.58 932.949 1153.17 933.051 1153.75 933.254C1154.33 933.458 1154.85 933.777 1155.31 934.213C1155.77 934.649 1156.13 935.214 1156.39 935.911C1156.66 936.602 1156.79 937.442 1156.79 938.432V939.185H1148.12V937.594H1154.71C1154.71 937.035 1154.6 936.54 1154.37 936.109C1154.14 935.674 1153.82 935.33 1153.41 935.08C1153 934.829 1152.52 934.703 1151.97 934.703C1151.38 934.703 1150.86 934.85 1150.41 935.143C1149.97 935.432 1149.63 935.811 1149.39 936.28C1149.15 936.744 1149.03 937.248 1149.03 937.793V939.036C1149.03 939.765 1149.16 940.385 1149.42 940.896C1149.68 941.408 1150.04 941.798 1150.5 942.068C1150.97 942.333 1151.51 942.466 1152.13 942.466C1152.53 942.466 1152.9 942.409 1153.23 942.295C1153.56 942.177 1153.85 942.002 1154.09 941.77C1154.33 941.538 1154.52 941.251 1154.65 940.911L1156.66 941.273C1156.49 941.865 1156.21 942.383 1155.79 942.828C1155.38 943.268 1154.86 943.612 1154.23 943.858C1153.61 944.099 1152.91 944.22 1152.11 944.22ZM1164.24 933.091V934.795H1158.28V933.091H1164.24ZM1159.88 930.477H1162V940.797C1162 941.209 1162.06 941.519 1162.19 941.727C1162.31 941.931 1162.47 942.071 1162.66 942.146C1162.86 942.217 1163.08 942.253 1163.31 942.253C1163.48 942.253 1163.63 942.241 1163.76 942.217C1163.88 942.194 1163.98 942.175 1164.05 942.161L1164.44 943.915C1164.31 943.962 1164.14 944.009 1163.91 944.057C1163.68 944.109 1163.4 944.137 1163.06 944.142C1162.5 944.152 1161.98 944.052 1161.5 943.844C1161.01 943.635 1160.62 943.313 1160.33 942.878C1160.03 942.442 1159.88 941.895 1159.88 941.237V930.477ZM1179.98 933.276C1179.91 932.603 1179.6 932.082 1179.05 931.713C1178.5 931.339 1177.81 931.152 1176.97 931.152C1176.38 931.152 1175.86 931.247 1175.42 931.436C1174.99 931.621 1174.65 931.876 1174.41 932.203C1174.17 932.525 1174.05 932.892 1174.05 933.304C1174.05 933.65 1174.13 933.948 1174.3 934.199C1174.46 934.45 1174.68 934.661 1174.94 934.831C1175.21 934.997 1175.5 935.136 1175.81 935.25C1176.12 935.359 1176.41 935.449 1176.7 935.52L1178.12 935.889C1178.58 936.003 1179.06 936.157 1179.54 936.351C1180.03 936.545 1180.48 936.801 1180.9 937.118C1181.32 937.435 1181.65 937.828 1181.91 938.297C1182.17 938.766 1182.3 939.327 1182.3 939.98C1182.3 940.804 1182.09 941.536 1181.66 942.175C1181.24 942.814 1180.63 943.318 1179.82 943.688C1179.02 944.057 1178.05 944.241 1176.92 944.241C1175.83 944.241 1174.88 944.069 1174.09 943.723C1173.29 943.377 1172.67 942.887 1172.22 942.253C1171.77 941.614 1171.52 940.856 1171.48 939.98H1173.68C1173.72 940.506 1173.89 940.944 1174.19 941.294C1174.49 941.64 1174.88 941.898 1175.35 942.068C1175.82 942.234 1176.34 942.317 1176.9 942.317C1177.52 942.317 1178.07 942.22 1178.56 942.026C1179.04 941.827 1179.43 941.552 1179.71 941.202C1179.99 940.847 1180.13 940.432 1180.13 939.959C1180.13 939.528 1180 939.175 1179.76 938.901C1179.52 938.626 1179.19 938.399 1178.77 938.219C1178.36 938.039 1177.89 937.88 1177.37 937.743L1175.65 937.274C1174.49 936.957 1173.56 936.491 1172.88 935.875C1172.21 935.259 1171.87 934.445 1171.87 933.432C1171.87 932.594 1172.09 931.862 1172.55 931.237C1173 930.612 1173.62 930.127 1174.39 929.781C1175.17 929.431 1176.05 929.256 1177.02 929.256C1178.01 929.256 1178.88 929.429 1179.63 929.774C1180.39 930.12 1180.98 930.596 1181.42 931.202C1181.85 931.803 1182.08 932.494 1182.1 933.276H1179.98ZM1189.84 933.091V934.795H1183.89V933.091H1189.84ZM1185.48 930.477H1187.61V940.797C1187.61 941.209 1187.67 941.519 1187.79 941.727C1187.91 941.931 1188.07 942.071 1188.27 942.146C1188.47 942.217 1188.68 942.253 1188.91 942.253C1189.08 942.253 1189.23 942.241 1189.36 942.217C1189.49 942.194 1189.59 942.175 1189.66 942.161L1190.04 943.915C1189.92 943.962 1189.74 944.009 1189.52 944.057C1189.29 944.109 1189.01 944.137 1188.67 944.142C1188.11 944.152 1187.59 944.052 1187.1 943.844C1186.62 943.635 1186.23 943.313 1185.93 942.878C1185.63 942.442 1185.48 941.895 1185.48 941.237V930.477ZM1195.37 944.241C1194.68 944.241 1194.05 944.114 1193.49 943.858C1192.93 943.598 1192.49 943.221 1192.16 942.729C1191.84 942.236 1191.68 941.633 1191.68 940.918C1191.68 940.302 1191.8 939.795 1192.04 939.398C1192.27 939 1192.59 938.685 1193 938.453C1193.4 938.221 1193.85 938.046 1194.35 937.928C1194.84 937.809 1195.35 937.719 1195.87 937.658C1196.52 937.582 1197.05 937.52 1197.46 937.473C1197.86 937.421 1198.16 937.338 1198.34 937.224C1198.53 937.111 1198.62 936.926 1198.62 936.67V936.621C1198.62 936 1198.45 935.52 1198.1 935.179C1197.75 934.838 1197.23 934.668 1196.55 934.668C1195.83 934.668 1195.27 934.826 1194.86 935.143C1194.45 935.456 1194.17 935.804 1194.01 936.188L1192.02 935.733C1192.25 935.07 1192.6 934.535 1193.05 934.128C1193.51 933.716 1194.04 933.418 1194.64 933.233C1195.23 933.044 1195.86 932.949 1196.52 932.949C1196.95 932.949 1197.42 933.001 1197.9 933.105C1198.4 933.205 1198.86 933.389 1199.28 933.659C1199.71 933.929 1200.06 934.315 1200.34 934.817C1200.61 935.314 1200.75 935.96 1200.75 936.756V944H1198.68V942.509H1198.59C1198.46 942.783 1198.25 943.053 1197.97 943.318C1197.7 943.583 1197.35 943.804 1196.92 943.979C1196.49 944.154 1195.97 944.241 1195.37 944.241ZM1195.83 942.537C1196.42 942.537 1196.92 942.421 1197.34 942.189C1197.76 941.957 1198.08 941.654 1198.29 941.28C1198.52 940.901 1198.63 940.496 1198.63 940.065V938.659C1198.55 938.735 1198.41 938.806 1198.19 938.872C1197.97 938.934 1197.73 938.988 1197.46 939.036C1197.18 939.078 1196.91 939.118 1196.65 939.156C1196.39 939.189 1196.18 939.218 1196 939.241C1195.59 939.294 1195.21 939.381 1194.87 939.504C1194.53 939.627 1194.26 939.805 1194.06 940.037C1193.86 940.264 1193.76 940.567 1193.76 940.946C1193.76 941.472 1193.96 941.869 1194.35 942.139C1194.73 942.404 1195.23 942.537 1195.83 942.537ZM1203.58 944V933.091H1205.63V934.824H1205.75C1205.94 934.237 1206.3 933.775 1206.8 933.439C1207.3 933.098 1207.88 932.928 1208.52 932.928C1208.65 932.928 1208.8 932.932 1208.98 932.942C1209.17 932.951 1209.31 932.963 1209.42 932.977V935.009C1209.33 934.985 1209.18 934.959 1208.96 934.93C1208.75 934.897 1208.53 934.881 1208.31 934.881C1207.81 934.881 1207.36 934.987 1206.97 935.2C1206.58 935.409 1206.27 935.7 1206.04 936.074C1205.82 936.443 1205.7 936.865 1205.7 937.338V944H1203.58ZM1216.99 933.091V934.795H1211.03V933.091H1216.99ZM1212.63 930.477H1214.76V940.797C1214.76 941.209 1214.82 941.519 1214.94 941.727C1215.06 941.931 1215.22 942.071 1215.42 942.146C1215.61 942.217 1215.83 942.253 1216.06 942.253C1216.23 942.253 1216.38 942.241 1216.51 942.217C1216.64 942.194 1216.74 942.175 1216.81 942.161L1217.19 943.915C1217.07 943.962 1216.89 944.009 1216.67 944.057C1216.44 944.109 1216.15 944.137 1215.81 944.142C1215.25 944.152 1214.73 944.052 1214.25 943.844C1213.77 943.635 1213.38 943.313 1213.08 942.878C1212.78 942.442 1212.63 941.895 1212.63 941.237V930.477ZM1223.93 944.22C1222.85 944.22 1221.93 943.991 1221.15 943.531C1220.38 943.067 1219.78 942.416 1219.36 941.578C1218.94 940.735 1218.73 939.748 1218.73 938.616C1218.73 937.499 1218.94 936.514 1219.36 935.662C1219.78 934.81 1220.37 934.144 1221.12 933.666C1221.88 933.188 1222.76 932.949 1223.78 932.949C1224.39 932.949 1224.99 933.051 1225.57 933.254C1226.14 933.458 1226.66 933.777 1227.12 934.213C1227.58 934.649 1227.94 935.214 1228.21 935.911C1228.47 936.602 1228.61 937.442 1228.61 938.432V939.185H1219.93V937.594H1226.53C1226.53 937.035 1226.41 936.54 1226.18 936.109C1225.96 935.674 1225.64 935.33 1225.23 935.08C1224.82 934.829 1224.34 934.703 1223.79 934.703C1223.19 934.703 1222.67 934.85 1222.23 935.143C1221.79 935.432 1221.45 935.811 1221.21 936.28C1220.97 936.744 1220.85 937.248 1220.85 937.793V939.036C1220.85 939.765 1220.98 940.385 1221.23 940.896C1221.49 941.408 1221.86 941.798 1222.32 942.068C1222.79 942.333 1223.33 942.466 1223.95 942.466C1224.35 942.466 1224.72 942.409 1225.05 942.295C1225.38 942.177 1225.67 942.002 1225.91 941.77C1226.15 941.538 1226.33 941.251 1226.46 940.911L1228.47 941.273C1228.31 941.865 1228.02 942.383 1227.61 942.828C1227.19 943.268 1226.67 943.612 1226.05 943.858C1225.43 944.099 1224.72 944.22 1223.93 944.22ZM1235.05 944.213C1234.17 944.213 1233.38 943.988 1232.69 943.538C1232 943.084 1231.46 942.437 1231.07 941.599C1230.68 940.757 1230.49 939.746 1230.49 938.567C1230.49 937.388 1230.68 936.379 1231.08 935.541C1231.47 934.703 1232.02 934.062 1232.71 933.616C1233.4 933.171 1234.18 932.949 1235.06 932.949C1235.74 932.949 1236.28 933.062 1236.69 933.29C1237.11 933.512 1237.43 933.773 1237.66 934.071C1237.89 934.369 1238.07 934.632 1238.2 934.859H1238.33V929.455H1240.45V944H1238.38V942.303H1238.2C1238.07 942.535 1237.89 942.8 1237.65 943.098C1237.41 943.396 1237.08 943.657 1236.67 943.879C1236.25 944.102 1235.71 944.213 1235.05 944.213ZM1235.52 942.402C1236.13 942.402 1236.64 942.241 1237.06 941.919C1237.49 941.592 1237.81 941.14 1238.03 940.562C1238.25 939.985 1238.36 939.312 1238.36 938.545C1238.36 937.788 1238.25 937.125 1238.04 936.557C1237.82 935.989 1237.5 935.546 1237.08 935.229C1236.66 934.911 1236.14 934.753 1235.52 934.753C1234.88 934.753 1234.34 934.919 1233.92 935.25C1233.49 935.581 1233.17 936.034 1232.95 936.607C1232.74 937.179 1232.63 937.826 1232.63 938.545C1232.63 939.275 1232.74 939.93 1232.96 940.513C1233.18 941.095 1233.5 941.557 1233.92 941.898C1234.36 942.234 1234.89 942.402 1235.52 942.402Z" fill="white"/>
<path d="M1251 935.5V937.5H1263.83L1260.59 940.743L1262 942.157L1267.66 936.5L1262 930.843L1260.59 932.257L1263.83 935.5H1251Z" fill="white"/>
<line x1="1131" y1="955.5" x2="1268" y2="955.5" stroke="white"/>
</g>
<defs>
<filter id="filter0_f_46_198" x="-48.3" y="466.44" width="1265.42" height="1229.5" filterUnits="userSpaceOnUse" color-interpolation-filters="sRGB">
<feFlood flood-opacity="0" result="BackgroundImageFix"/>
<feBlend mode="normal" in="SourceGraphic" in2="BackgroundImageFix" result="shape"/>
<feGaussianBlur stdDeviation="186.65" result="effect1_foregroundBlur_46_198"/>
</filter>
<filter id="filter1_f_46_198" x="860" y="96" width="873" height="858.171" filterUnits="userSpaceOnUse" color-interpolation-filters="sRGB">
<feFlood flood-opacity="0" result="BackgroundImageFix"/>
<feBlend mode="normal" in="SourceGraphic" in2="BackgroundImageFix" result="shape"/>
<feGaussianBlur stdDeviation="150" result="effect1_foregroundBlur_46_198"/>
</filter>
<filter id="filter2_f_46_198" x="1247.2" y="492.2" width="957.173" height="835.645" filterUnits="userSpaceOnUse" color-interpolation-filters="sRGB">
<feFlood flood-opacity="0" result="BackgroundImageFix"/>
<feBlend mode="normal" in="SourceGraphic" in2="BackgroundImageFix" result="shape"/>
<feGaussianBlur stdDeviation="93.9" result="effect1_foregroundBlur_46_198"/>
</filter>
<filter id="filter3_f_46_198" x="619.4" y="453.4" width="1098.62" height="1136.46" filterUnits="userSpaceOnUse" color-interpolation-filters="sRGB">
<feFlood flood-opacity="0" result="BackgroundImageFix"/>
<feBlend mode="normal" in="SourceGraphic" in2="BackgroundImageFix" result="shape"/>
<feGaussianBlur stdDeviation="133.3" result="effect1_foregroundBlur_46_198"/>
</filter>
<clipPath id="clip0_46_198">
<rect width="1920" height="1050" fill="white"/>
</clipPath>
</defs>
</svg>
